<svg xmlns="http://www.w3.org/2000/svg" xmlns:xlink="http://www.w3.org/1999/xlink" viewBox="0 0 1272.60906 332.73456">
  <defs>
    <linearGradient id="linear-gradient" x1="1042.0399" y1="212.55631" x2="1254.07718" y2="334.97609" gradientUnits="userSpaceOnUse">
      <stop offset="0" stop-color="#fff" stop-opacity="0"/>
      <stop offset="0.11451" stop-color="#fff" stop-opacity="0.01729"/>
      <stop offset="0.23879" stop-color="#fff" stop-opacity="0.06846"/>
      <stop offset="0.3677" stop-color="#fff" stop-opacity="0.15362"/>
      <stop offset="0.49983" stop-color="#fff" stop-opacity="0.27295"/>
      <stop offset="0.63441" stop-color="#fff" stop-opacity="0.42655"/>
      <stop offset="0.77102" stop-color="#fff" stop-opacity="0.61454"/>
      <stop offset="0.90672" stop-color="#fff" stop-opacity="0.83249"/>
      <stop offset="1" stop-color="#fff"/>
    </linearGradient>
    <clipPath id="clip-path" transform="translate(-18.92288 -19.38918)">
      <rect x="357" y="-62" width="351" height="435" style="fill: none"/>
    </clipPath>
  </defs>
  <title>GearScheduler-logo</title>
  <g id="Layer_2" data-name="Layer 2">
    <path d="M1004,231C499,445,33.03434,215,40,215,686-187,1005.70242,231,1004,231Z" transform="translate(-18.92288 -19.38918)" style="fill: #fff;stroke: #000;stroke-miterlimit: 10;stroke-width: 42px"/>
    <path d="M1028.55468,235.9134c28.90592,133.38041,149.8969,130.361,247.18871,61.53572-51.03805-24.19123-65.736-69.1795-106.44049-100.43054C1118.09482,157.70333,1066.91344,200.75853,1028.55468,235.9134Z" transform="translate(-18.92288 -19.38918)" style="stroke: #000;stroke-miterlimit: 10;stroke-width: 16px;fill: url(#linear-gradient)"/>
  </g>
  <g id="Layer_4" data-name="Layer 4">
    <g style="clip-path: url(#clip-path)">
      <g style="clip-path: url(#clip-path)">
        <path d="M538.01923,178.23378l-77.3931,44.6828a89.36554,89.36554,0,0,1,32.7103-122.0759,85.43777,85.43777,0,0,1,44.6828-11.973Z" transform="translate(-18.92288 -19.38918)" style="fill: #adadad"/>
        <path d="M538.01923,178.23378l-77.3931,44.6828a89.36554,89.36554,0,0,1,32.7103-122.0759,85.43777,85.43777,0,0,1,44.6828-11.973Z" transform="translate(-18.92288 -19.38918)" style="fill: none;stroke: #000;stroke-miterlimit: 10;stroke-width: 11px"/>
        <path d="M538.01923,178.23378V88.86769a89.36609,89.36609,0,0,1,0,178.73219c-32.87071,0-60.958-16.216-77.3931-44.6833Z" transform="translate(-18.92288 -19.38918)" style="fill: #fcee21"/>
        <path d="M538.01923,178.23378V88.86769a89.36609,89.36609,0,0,1,0,178.73219c-32.87071,0-60.958-16.216-77.3931-44.6833Z" transform="translate(-18.92288 -19.38918)" style="fill: none;stroke: #000;stroke-miterlimit: 10;stroke-width: 11px"/>
        <path d="M515.89456,171.19764a47.50247,47.50247,0,0,1-15.65988,2.79932c-7.71684,0-14.07147-1.96691-19.0649-6.73314-4.38772-4.23642-7.11113-11.04546-7.11113-18.989.0754-15.20649,10.51565-26.32734,27.61365-26.32734a31.51192,31.51192,0,0,1,12.70926,2.34542l-1.58891,5.37091a26.42967,26.42967,0,0,0-11.27216-2.1936c-12.40716,0-20.502,7.71633-20.502,20.502,0,12.93647,7.79224,20.57791,19.6696,20.57791,4.31283,0,7.26294-.6057,8.77595-1.36221v-15.206H499.09968v-5.29552h16.79489Z" transform="translate(-18.92288 -19.38918)"/>
        <path d="M559.36159,210.97971a23.32575,23.32575,0,0,0,11.802,3.32862c6.73313,0,10.66695-3.55531,10.66695-8.7,0-4.76622-2.72341-7.48964-9.60784-10.13714-8.32154-2.95062-13.46628-7.26295-13.46628-14.45,0-7.94355,6.58184-13.84427,16.49229-13.84427a23.17376,23.17376,0,0,1,11.27265,2.49621l-1.81611,5.37143a20.30885,20.30885,0,0,0-9.68375-2.42082c-6.95983,0-9.60785,4.16052-9.60785,7.64094,0,4.76623,3.10192,7.11164,10.13765,9.83455,8.62465,3.32913,13.01237,7.49015,13.01237,14.97928,0,7.86814-5.82533,14.67718-17.854,14.67718-4.91753,0-10.289-1.43761-13.01237-3.25322Z" transform="translate(-18.92288 -19.38918)"/>
      </g>
    </g>
  </g>
</svg>
