<svg id="Layer_1" data-name="Layer 1" xmlns="http://www.w3.org/2000/svg" width="601.68196" height="375.1083" viewBox="0 0 601.68196 375.1083">
  <title>ID</title>
  <g>
    <rect x="0.5" y="254.6083" width="309" height="120" style="fill: #fff;stroke: #000;stroke-miterlimit: 10"/>
    <g>
      <path d="M77.94574,301.01181a40.26993,40.26993,0,0,0-.916,4.74414,43.54128,43.54128,0,0,1-.6543,4.875,76.2532,76.2532,0,0,0-1.08008,9.55273,68.5691,68.5691,0,0,0,.52344,8.50586q.39258,3.041-1.24316,4.43164a5.06641,5.06641,0,0,1-3.27148,1.39063,3.39686,3.39686,0,0,1-3.30371-2.01172q-.98145-2.0127-.98145-6.98437,0-3.07324,1.53711-14.65625l1.7998-12.791q.55518-2.8125.81738-5.23437.39258-3.56543.96484-4.40039a7.05468,7.05468,0,0,1,2.04492-1.76758,4.85594,4.85594,0,0,1,2.22461-.93164,3.24566,3.24566,0,0,1,2.89551,1.53711,6.76835,6.76835,0,0,1,.998,3.76172Z" transform="translate(-40.37543 -7.29218)"/>
      <path d="M89.13422,328.19736a39.14609,39.14609,0,0,0,.55566-5.75781q.75293-11.38477,2.81348-23.81641a22.14262,22.14262,0,0,0,.52344-3.99023.65946.65946,0,0,0-.52344-.7207q-3.46729-.88184-3.46777-3.041a4.11927,4.11927,0,0,1,1.42383-2.96094,4.29035,4.29035,0,0,1,3.02539-1.39062l4.417.13086q3.00879,0,8.27637-.42578,4.48242-.39258,7.2959-.39258,9.12744,0,14.77051,5.12109,5.644,5.11816,5.64355,13.55859,0,9.42188-8.70215,17.0293a47.09989,47.09989,0,0,1-21.06836,10.38672A35.42116,35.42116,0,0,0,99.50434,333.17a18.81182,18.81182,0,0,0-3.14062,1.66992,7.7133,7.7133,0,0,1-4.38379,1.53711,3.79731,3.79731,0,0,1-2.97656-1.60352,4.66081,4.66081,0,0,1-1.30859-2.61719,4.86217,4.86217,0,0,1,.68652-1.99609Zm8.53809-1.63477q1.73438,0,9.92969-2.53516a30.747,30.747,0,0,0,13.29785-7.80273,16.79019,16.79019,0,0,0,5.10352-12.00586,10.65789,10.65789,0,0,0-3.77832-8.58789,14.81961,14.81961,0,0,0-9.89648-3.18945,77.98337,77.98337,0,0,0-10.07617.78516c-.502.06445-.90527.10938-1.21.13086q-3.56689,21.85254-3.56641,30.84961A9.71156,9.71156,0,0,0,97.67231,326.56259Z" transform="translate(-40.37543 -7.29218)"/>
      <path d="M145.23969,332.84384a4.68843,4.68843,0,0,1-3.27148-.94922q-1.01367-.94629-1.01367-4.74414a4.61715,4.61715,0,0,1,.44141-2.30469,5.10523,5.10523,0,0,1,1.7666-1.53906,4.68337,4.68337,0,0,1,2.33887-.80078,7.22435,7.22435,0,0,1,3.77832.94922,2.8491,2.8491,0,0,1,1.58691,2.51758,6.21922,6.21922,0,0,1-2.27344,4.9082Q146.3183,332.84384,145.23969,332.84384Zm6.41211-28.23242a4.45222,4.45222,0,0,1-1.84863,3.36914,6.62093,6.62093,0,0,1-4.43262,1.57031q-1.53809,0-2.748-1.99609v.0332a5.87265,5.87265,0,0,1-1.0791-2.91211,4.83494,4.83494,0,0,1,.834-2.06055,7.60916,7.60916,0,0,1,1.75-2.127l-.03223.0332a4.711,4.711,0,0,1,2.81348-.7207,5.67655,5.67655,0,0,1,2.19141.88477q.29443.19629.36035.22852a8.28634,8.28634,0,0,1,1.91309,1.65234,3.79549,3.79549,0,0,1,.27832,1.75Z" transform="translate(-40.37543 -7.29218)"/>
      <path d="M225.35883,318.28525a21.40868,21.40868,0,0,0-7.32812-1.14453h-1.50488a31.1256,31.1256,0,0,0-.78516,5.791l-.0332,1.30859q-.03223,1.86328.09863,4.71094,1.63477,1.79883,1.63574,2.68164a3.94908,3.94908,0,0,1-1.40723,2.83008,4.11356,4.11356,0,0,1-2.81348,1.35742,6.35056,6.35056,0,0,1-3.84375-1.11133q-1.52051-1.11328-1.52148-4.418,0-1.17773.22949-3.99023l.29395-3.82812a41.81337,41.81337,0,0,1,.55664-5.03711,48.58091,48.58091,0,0,0-11.28711,1.07813,35.67689,35.67689,0,0,1-8.50586,1.27734q-2.19141,0-4.71094-2.91211,1.24365-3.72949,13.87109-14.29687l13.47852-11.123q.58887-.39258,1.57031-1.17773,4.31836-3.36914,5.59473-3.36914,3.79395,0,3.79492,2.32227l-1.7666,6.41211a72.89148,72.89148,0,0,0-2.81348,12.20313c-.1748,1.11133-.34961,2.13867-.52344,3.07422l6.01953.23047q4.18652,0,5.54492,1.11133a4.48137,4.48137,0,0,1,1.35742,3.66406,2.59237,2.59237,0,0,1-.94824,1.94727,3.15256,3.15256,0,0,1-2.19238.86719A4.15933,4.15933,0,0,1,225.35883,318.28525Zm-12.1377-20.34766q-1.01367.81738-2.15918,1.668a52.19344,52.19344,0,0,0-6.28125,5.23438,87.51848,87.51848,0,0,1-9.4541,7.94922q2.55176-.293,7.78613-1.08008,5.4624-.81445,7.13184-.916.13037-.84961,1.47168-6.3457Z" transform="translate(-40.37543 -7.29218)"/>
      <path d="M274.36567,297.90439a9.14006,9.14006,0,0,1-.85059,3.10742,124.45285,124.45285,0,0,0-5.26758,16.03125q-2.48584,9.38965-2.48633,11.74414,0,5.66016-3.36914,5.66016a3.57508,3.57508,0,0,1-3.72949-2.4043,11.83764,11.83764,0,0,1-.88379-3.7793q0-1.40625,1.832-7.002l2.48633-7.916a34.57995,34.57995,0,0,1-7.377,3.38672,24.87534,24.87534,0,0,1-6.95215.89844,7.97655,7.97655,0,0,1-5.75781-2.584,8.25477,8.25477,0,0,1-2.584-6.01953,12.52392,12.52392,0,0,1,1.52148-5.92187,20.19,20.19,0,0,1,5.11914-5.85547q3.59912-2.97656,5.16895-4.02344a22.24275,22.24275,0,0,1,5.90527-2.209,27.84772,27.84772,0,0,1,6.19922-1.16211,8.87511,8.87511,0,0,1,3.71387.6875,13.40012,13.40012,0,0,1,3.15625,2.16016l2.65039,2.32227a4.96264,4.96264,0,0,1,1.47168,2.68164Zm-8.08105.6875q-.91553-1.7666-4.05664-1.76758a14.21541,14.21541,0,0,0-6.5918,1.457,19.78131,19.78131,0,0,0-5.627,4.62891q-2.79639,3.17285-2.79687,5.13477a3.76455,3.76455,0,0,0,.98145,2.68359,3.33326,3.33326,0,0,0,2.55176,1.04688q2.55176,0,7.7373-2.60156,5.18408-2.59863,5.87207-4.69336Z" transform="translate(-40.37543 -7.29218)"/>
      <path d="M297.78949,325.711a55.29281,55.29281,0,0,1,12.03906-.94727,48.58217,48.58217,0,0,1,5.16895.457q3.66357.46,4.8418.459a6.31375,6.31375,0,0,0,2.51855-.623,7.01947,7.01947,0,0,1,2.91211-.62109,2.98806,2.98806,0,0,1,2.15918,1.12891,3.17359,3.17359,0,0,1,1.04688,1.97852,4.216,4.216,0,0,1-2.83008,3.959,13.0799,13.0799,0,0,1-5.5127,1.30859,19.54737,19.54737,0,0,1-4.77637-.39258,46.39645,46.39645,0,0,0-12.20215-1.30859,36.29,36.29,0,0,0-6.65723.57227,18.52936,18.52936,0,0,0-4.44922,1.25977,8.70525,8.70525,0,0,0-2.63379,2.09375,4.85759,4.85759,0,0,1-3.86035,1.70117q-3.69727,0-3.69727-3.10742a8.34017,8.34017,0,0,1,1.88184-5.18555q1.87939-2.4375,7.50781-5.709a87.61633,87.61633,0,0,0,11.58105-7.70312,35.00863,35.00863,0,0,0,6.77148-7.26367q2.61768-3.84375,2.61719-5.9043a5.4149,5.4149,0,0,0-1.84766-4.10547,6.62391,6.62391,0,0,0-4.69531-1.71875q-1.27588,0-4.792,2.07813a22.733,22.733,0,0,0-5.74219,4.66211,5.91233,5.91233,0,0,1-4.71094,1.73242,2.76025,2.76025,0,0,1-2.24023-1.60156,5.55915,5.55915,0,0,1-.998-2.84766q0-1.40332,2.55176-3.07422.81738-.52148,1.92969-1.30859a52.29922,52.29922,0,0,1,8.52246-5.26758,20.16027,20.16027,0,0,1,7.999-1.3418q4.4165,0,8.44043,3.8457,4.02393,3.84375,4.02344,8.03125,0,5.59277-6.42773,12.75781A52.34622,52.34622,0,0,1,297.78949,325.711Z" transform="translate(-40.37543 -7.29218)"/>
    </g>
  </g>
  <g>
    <path d="M319.71283,332.6112c-2.77479-2.89922,6.8718-14.50714,6.8718-14.50714v-3.05413l9.1624-8.39887s2.2906-12.98007,11.453-22.14248l40.46728-40.46728s17.56127,21.37894,21.37894,21.37894-48.10262,47.33909-48.10262,47.33909-14.50714,4.5812-15.27067,4.5812-8.39887,9.1624-8.39887,9.1624H334.22S322.43374,335.45412,319.71283,332.6112Z" transform="translate(-40.37543 -7.29218)"/>
    <path d="M520.14042,111.5682,387.28556,243.65953s16.79774,20.61541,22.14248,21.37894S543.81,133.71068,543.81,133.71068Z" transform="translate(-40.37543 -7.29218)" style="fill: #fff;stroke: #000;stroke-miterlimit: 10"/>
    <path d="M526.63046,87.51689s74.06277-79.4075,82.46164-80.171,13.74361,6.8718,13.74361,6.8718,9.92594-5.34474,16.03421.76353,1.89748,13.05143,0,16.79774C623.981,61.175,546.48233,134.09244,546.48233,134.09244H543.4282l-23.66954-22.906,1.52707-5.34474S606.038,22.61653,612.14623,23.38006c0,0,2.2906-6.10827-5.34474-4.5812,0,0-43.52142,35.12255-64.90036,61.08269-2.0196,2.45237.76353,1.52707-6.8718,10.68947C535.02933,90.571,530.44813,92.86163,526.63046,87.51689Z" transform="translate(-40.37543 -7.29218)"/>
  </g>
</svg>
